  0
SECTION
  2
HEADER
  9
$ANGBASE
  50
0.0
  9
$ANGDIR
  70
  1
  9
$MEASUREMENT
  70
0
  0
ENDSEC
  0
SECTION
  2
TABLES
  0
TABLE
  2
LTYPE
  70
1
  0
LTYPE
  2
CONTINUOUS
  70
0
  3
Solid line
  72
65
  73
0
  40
0.0
  0
ENDTAB
  0
TABLE
  2
STYLE
  70
4
  0
STYLE
  2
KICAD
  70
0
  40
0
  41
1
  42
1
  50
0
  71
0
  3
isocp.shx
  0
STYLE
  2
KICADB
  70
0
  40
0
  41
1
  42
1
  50
0
  71
0
  3
isocp.shx
  0
STYLE
  2
KICADI
  70
0
  40
0
  41
1
  42
1
  50
15
  71
0
  3
isocp.shx
  0
STYLE
  2
KICADBI
  70
0
  40
0
  41
1
  42
1
  50
15
  71
0
  3
isocp.shx
  0
ENDTAB
  0
TABLE
  2
LAYER
  70
30
  0
LAYER
  2
BLACK
  70
0
  62
7
  6
CONTINUOUS
  0
LAYER
  2
GRAY1
  70
0
  62
251
  6
CONTINUOUS
  0
LAYER
  2
GRAY2
  70
0
  62
8
  6
CONTINUOUS
  0
LAYER
  2
GRAY3
  70
0
  62
9
  6
CONTINUOUS
  0
LAYER
  2
WHITE
  70
0
  62
7
  6
CONTINUOUS
  0
LAYER
  2
LYELLOW
  70
0
  62
51
  6
CONTINUOUS
  0
LAYER
  2
BLUE1
  70
0
  62
178
  6
CONTINUOUS
  0
LAYER
  2
GREEN1
  70
0
  62
98
  6
CONTINUOUS
  0
LAYER
  2
CYAN1
  70
0
  62
138
  6
CONTINUOUS
  0
LAYER
  2
RED1
  70
0
  62
18
  6
CONTINUOUS
  0
LAYER
  2
MAGENTA1
  70
0
  62
228
  6
CONTINUOUS
  0
LAYER
  2
BROWN1
  70
0
  62
58
  6
CONTINUOUS
  0
LAYER
  2
BLUE2
  70
0
  62
5
  6
CONTINUOUS
  0
LAYER
  2
GREEN2
  70
0
  62
3
  6
CONTINUOUS
  0
LAYER
  2
CYAN2
  70
0
  62
4
  6
CONTINUOUS
  0
LAYER
  2
RED2
  70
0
  62
1
  6
CONTINUOUS
  0
LAYER
  2
MAGENTA2
  70
0
  62
6
  6
CONTINUOUS
  0
LAYER
  2
BROWN2
  70
0
  62
54
  6
CONTINUOUS
  0
LAYER
  2
BLUE3
  70
0
  62
171
  6
CONTINUOUS
  0
LAYER
  2
GREEN3
  70
0
  62
91
  6
CONTINUOUS
  0
LAYER
  2
CYAN3
  70
0
  62
131
  6
CONTINUOUS
  0
LAYER
  2
RED3
  70
0
  62
11
  6
CONTINUOUS
  0
LAYER
  2
MAGENTA3
  70
0
  62
221
  6
CONTINUOUS
  0
LAYER
  2
YELLOW3
  70
0
  62
2
  6
CONTINUOUS
  0
LAYER
  2
BLUE4
  70
0
  62
5
  6
CONTINUOUS
  0
LAYER
  2
GREEN4
  70
0
  62
3
  6
CONTINUOUS
  0
LAYER
  2
CYAN4
  70
0
  62
4
  6
CONTINUOUS
  0
LAYER
  2
RED4
  70
0
  62
1
  6
CONTINUOUS
  0
LAYER
  2
MAGENTA4
  70
0
  62
6
  6
CONTINUOUS
  0
LAYER
  2
YELLOW4
  70
0
  62
2
  6
CONTINUOUS
  0
ENDTAB
  0
ENDSEC
  0
SECTION
  2
ENTITIES
0
LINE
8
Black
10
20.4022
20
0.049618
11
20.4044
21
0.049809
0
LINE
8
Black
10
20.4044
20
0.049809
11
20.4107
21
0.04812
0
LINE
8
Black
10
20.4107
20
0.04812
11
20.4171
21
0.046985
0
LINE
8
Black
10
20.4171
20
0.046985
11
20.419
21
0.045885
0
LINE
8
Black
10
20.419
20
0.045885
11
20.4211
21
0.045316
0
LINE
8
Black
10
20.4211
20
0.045316
11
20.4265
21
0.041567
0
LINE
8
Black
10
20.4265
20
0.041567
11
20.4321
21
0.038302
0
LINE
8
Black
10
20.4321
20
0.038302
11
20.4336
21
0.036617
0
LINE
8
Black
10
20.4336
20
0.036617
11
20.4354
21
0.035355
0
LINE
8
Black
10
20.4354
20
0.035355
11
27.0354
21
-6.56464
0
LINE
8
Black
10
27.0354
20
-6.56464
11
27.0366
21
-6.56645
0
LINE
8
Black
10
27.0366
20
-6.56645
11
27.0383
21
-6.56786
0
LINE
8
Black
10
27.0383
20
-6.56786
11
27.0416
21
-6.57351
0
LINE
8
Black
10
27.0416
20
-6.57351
11
27.0453
21
-6.57887
0
LINE
8
Black
10
27.0453
20
-6.57887
11
27.0459
21
-6.58099
0
LINE
8
Black
10
27.0459
20
-6.58099
11
27.047
21
-6.5829
0
LINE
8
Black
10
27.047
20
-6.5829
11
27.0481
21
-6.58933
0
LINE
8
Black
10
27.0481
20
-6.58933
11
27.0498
21
-6.59564
0
LINE
8
Black
10
27.0498
20
-6.59564
11
27.0496
21
-6.59783
0
LINE
8
Black
10
27.0496
20
-6.59783
11
27.05
21
-6.6
0
LINE
8
Black
10
27.05
20
-6.6
11
27.05
21
-16.7
0
LINE
8
Black
10
27.05
20
-16.7
11
27.047
21
-16.7171
0
LINE
8
Black
10
27.047
20
-16.7171
11
27.0383
21
-16.7321
0
LINE
8
Black
10
27.0383
20
-16.7321
11
27.025
21
-16.7433
0
LINE
8
Black
10
27.025
20
-16.7433
11
27.0087
21
-16.7492
0
LINE
8
Black
10
27.0087
20
-16.7492
11
26.6411
21
-16.814
0
LINE
8
Black
10
26.6411
20
-16.814
11
26.3256
21
-16.9962
0
LINE
8
Black
10
26.3256
20
-16.9962
11
26.0913
21
-17.2754
0
LINE
8
Black
10
26.0913
20
-17.2754
11
25.9667
21
-17.6178
0
LINE
8
Black
10
25.9667
20
-17.6178
11
25.9667
21
-17.9822
0
LINE
8
Black
10
25.9667
20
-17.9822
11
26.0913
21
-18.3246
0
LINE
8
Black
10
26.0913
20
-18.3246
11
26.3256
21
-18.6038
0
LINE
8
Black
10
26.3256
20
-18.6038
11
26.6411
21
-18.786
0
LINE
8
Black
10
26.6411
20
-18.786
11
27.0087
21
-18.8508
0
LINE
8
Black
10
27.0087
20
-18.8508
11
27.025
21
-18.8567
0
LINE
8
Black
10
27.025
20
-18.8567
11
27.0358
21
-18.8658
0
LINE
8
Black
10
27.0358
20
-18.8658
11
27.0383
21
-18.8679
0
LINE
8
Black
10
27.0383
20
-18.8679
11
27.047
21
-18.8829
0
LINE
8
Black
10
27.047
20
-18.8829
11
27.05
21
-18.9
0
LINE
8
Black
10
27.05
20
-18.9
11
27.05
21
-41.8
0
LINE
8
Black
10
27.05
20
-41.8
11
27.0492
21
-41.8043
0
LINE
8
Black
10
27.0492
20
-41.8043
11
27.0492
21
-41.8087
0
LINE
8
Black
10
27.0492
20
-41.8087
11
26.8683
21
-42.8347
0
LINE
8
Black
10
26.8683
20
-42.8347
11
26.8683
21
-42.8347
0
LINE
8
Black
10
26.8683
20
-42.8347
11
26.8653
21
-42.8429
0
LINE
8
Black
10
26.8653
20
-42.8429
11
26.8624
21
-42.8511
0
LINE
8
Black
10
26.8624
20
-42.8511
11
26.8624
21
-42.8511
0
LINE
8
Black
10
26.8624
20
-42.8511
11
26.3414
21
-43.7534
0
LINE
8
Black
10
26.3414
20
-43.7534
11
26.3414
21
-43.7534
0
LINE
8
Black
10
26.3414
20
-43.7534
11
26.3303
21
-43.7667
0
LINE
8
Black
10
26.3303
20
-43.7667
11
25.5321
21
-44.4364
0
LINE
8
Black
10
25.5321
20
-44.4364
11
25.5321
21
-44.4364
0
LINE
8
Black
10
25.5321
20
-44.4364
11
25.5266
21
-44.4396
0
LINE
8
Black
10
25.5266
20
-44.4396
11
25.5171
21
-44.4451
0
LINE
8
Black
10
25.5171
20
-44.4451
11
25.5171
21
-44.4451
0
LINE
8
Black
10
25.5171
20
-44.4451
11
24.538
21
-44.8014
0
LINE
8
Black
10
24.538
20
-44.8014
11
24.5316
21
-44.8025
0
LINE
8
Black
10
24.5316
20
-44.8025
11
24.5253
21
-44.8042
0
LINE
8
Black
10
24.5253
20
-44.8042
11
24.0044
21
-44.8498
0
LINE
8
Black
10
24.0044
20
-44.8498
11
24.0022
21
-44.8496
0
LINE
8
Black
10
24.0022
20
-44.8496
11
24
21
-44.85
0
LINE
8
Black
10
24
20
-44.85
11
3
21
-44.85
0
LINE
8
Black
10
3
20
-44.85
11
2.99569
21
-44.8492
0
LINE
8
Black
10
2.99569
20
-44.8492
11
2.99132
21
-44.8492
0
LINE
8
Black
10
2.99132
20
-44.8492
11
1.96526
21
-44.6683
0
LINE
8
Black
10
1.96526
20
-44.6683
11
1.96526
21
-44.6683
0
LINE
8
Black
10
1.96526
20
-44.6683
11
1.9571
21
-44.6653
0
LINE
8
Black
10
1.9571
20
-44.6653
11
1.94894
21
-44.6624
0
LINE
8
Black
10
1.94894
20
-44.6624
11
1.94894
21
-44.6624
0
LINE
8
Black
10
1.94894
20
-44.6624
11
1.04664
21
-44.1414
0
LINE
8
Black
10
1.04664
20
-44.1414
11
1.04664
21
-44.1414
0
LINE
8
Black
10
1.04664
20
-44.1414
11
1.03333
21
-44.1303
0
LINE
8
Black
10
1.03333
20
-44.1303
11
0.363625
21
-43.3321
0
LINE
8
Black
10
0.363625
20
-43.3321
11
0.363622
21
-43.3321
0
LINE
8
Black
10
0.363622
20
-43.3321
11
0.360444
21
-43.3266
0
LINE
8
Black
10
0.360444
20
-43.3266
11
0.354939
21
-43.3171
0
LINE
8
Black
10
0.354939
20
-43.3171
11
0.354938
21
-43.3171
0
LINE
8
Black
10
0.354938
20
-43.3171
11
-0.001408
21
-42.338
0
LINE
8
Black
10
-0.001408
20
-42.338
11
-0.002542
21
-42.3316
0
LINE
8
Black
10
-0.002542
20
-42.3316
11
-0.004233
21
-42.3253
0
LINE
8
Black
10
-0.004233
20
-42.3253
11
-0.04981
21
-41.8044
0
LINE
8
Black
10
-0.04981
20
-41.8044
11
-0.049618
21
-41.8022
0
LINE
8
Black
10
-0.049618
20
-41.8022
11
-0.05
21
-41.8
0
LINE
8
Black
10
-0.05
20
-41.8
11
-0.05
21
-18.9
0
LINE
8
Black
10
-0.05
20
-18.9
11
-0.046985
21
-18.8829
0
LINE
8
Black
10
-0.046985
20
-18.8829
11
-0.038302
21
-18.8679
0
LINE
8
Black
10
-0.038302
20
-18.8679
11
-0.035847
21
-18.8658
0
LINE
8
Black
10
-0.035847
20
-18.8658
11
-0.025
21
-18.8567
0
LINE
8
Black
10
-0.025
20
-18.8567
11
-0.008682
21
-18.8508
0
LINE
8
Black
10
-0.008682
20
-18.8508
11
0.358857
21
-18.786
0
LINE
8
Black
10
0.358857
20
-18.786
11
0.674431
21
-18.6038
0
LINE
8
Black
10
0.674431
20
-18.6038
11
0.908658
21
-18.3246
0
LINE
8
Black
10
0.908658
20
-18.3246
11
1.03329
21
-17.9822
0
LINE
8
Black
10
1.03329
20
-17.9822
11
1.03329
21
-17.6178
0
LINE
8
Black
10
1.03329
20
-17.6178
11
0.908658
21
-17.2754
0
LINE
8
Black
10
0.908658
20
-17.2754
11
0.674431
21
-16.9962
0
LINE
8
Black
10
0.674431
20
-16.9962
11
0.358857
21
-16.814
0
LINE
8
Black
10
0.358857
20
-16.814
11
-0.008682
21
-16.7492
0
LINE
8
Black
10
-0.008682
20
-16.7492
11
-0.025
21
-16.7433
0
LINE
8
Black
10
-0.025
20
-16.7433
11
-0.038302
21
-16.7321
0
LINE
8
Black
10
-0.038302
20
-16.7321
11
-0.046985
21
-16.7171
0
LINE
8
Black
10
-0.046985
20
-16.7171
11
-0.05
21
-16.7
0
LINE
8
Black
10
-0.05
20
-16.7
11
-0.05
21
-6.6
0
LINE
8
Black
10
-0.05
20
-6.6
11
-0.049618
21
-6.59783
0
LINE
8
Black
10
-0.049618
20
-6.59783
11
-0.049809
21
-6.59564
0
LINE
8
Black
10
-0.049809
20
-6.59564
11
-0.04812
21
-6.58934
0
LINE
8
Black
10
-0.04812
20
-6.58934
11
-0.046985
21
-6.5829
0
LINE
8
Black
10
-0.046985
20
-6.5829
11
-0.045885
21
-6.58099
0
LINE
8
Black
10
-0.045885
20
-6.58099
11
-0.045316
21
-6.57887
0
LINE
8
Black
10
-0.045316
20
-6.57887
11
-0.041567
21
-6.57351
0
LINE
8
Black
10
-0.041567
20
-6.57351
11
-0.038302
21
-6.56786
0
LINE
8
Black
10
-0.038302
20
-6.56786
11
-0.036617
21
-6.56645
0
LINE
8
Black
10
-0.036617
20
-6.56645
11
-0.035355
21
-6.56464
0
LINE
8
Black
10
-0.035355
20
-6.56464
11
6.56464
21
0.035356
0
LINE
8
Black
10
6.56464
20
0.035356
11
6.56645
21
0.036619
0
LINE
8
Black
10
6.56645
20
0.036619
11
6.56786
21
0.038302
0
LINE
8
Black
10
6.56786
20
0.038302
11
6.57351
21
0.041565
0
LINE
8
Black
10
6.57351
20
0.041565
11
6.57887
21
0.045316
0
LINE
8
Black
10
6.57887
20
0.045316
11
6.58099
21
0.045886
0
LINE
8
Black
10
6.58099
20
0.045886
11
6.5829
21
0.046985
0
LINE
8
Black
10
6.5829
20
0.046985
11
6.58933
21
0.048119
0
LINE
8
Black
10
6.58933
20
0.048119
11
6.59564
21
0.04981
0
LINE
8
Black
10
6.59564
20
0.04981
11
6.59783
21
0.049618
0
LINE
8
Black
10
6.59783
20
0.049618
11
6.6
21
0.05
0
LINE
8
Black
10
6.6
20
0.05
11
20.4
21
0.05
0
LINE
8
Black
10
20.4
20
0.05
11
20.4022
21
0.049618
0
LINE
8
Black
10
26.95
20
-6.62071
11
20.3793
21
-0.05
0
LINE
8
Black
10
20.3793
20
-0.05
11
6.62071
21
-0.05
0
LINE
8
Black
10
6.62071
20
-0.05
11
0.05
21
-6.62071
0
LINE
8
Black
10
0.05
20
-6.62071
11
0.05
21
-16.658
0
LINE
8
Black
10
0.05
20
-16.658
11
0.384899
21
-16.7171
0
LINE
8
Black
10
0.384899
20
-16.7171
11
0.384905
21
-16.7171
0
LINE
8
Black
10
0.384905
20
-16.7171
11
0.393063
21
-16.7201
0
LINE
8
Black
10
0.393063
20
-16.7201
11
0.401222
21
-16.723
0
LINE
8
Black
10
0.401222
20
-16.723
11
0.401226
21
-16.723
0
LINE
8
Black
10
0.401226
20
-16.723
11
0.732061
21
-16.914
0
LINE
8
Black
10
0.732061
20
-16.914
11
0.732066
21
-16.914
0
LINE
8
Black
10
0.732066
20
-16.914
11
0.736751
21
-16.918
0
LINE
8
Black
10
0.736751
20
-16.918
11
0.745369
21
-16.9252
0
LINE
8
Black
10
0.745369
20
-16.9252
11
0.745373
21
-16.9252
0
LINE
8
Black
10
0.745373
20
-16.9252
11
0.990928
21
-17.2179
0
LINE
8
Black
10
0.990928
20
-17.2179
11
0.990931
21
-17.2179
0
LINE
8
Black
10
0.990931
20
-17.2179
11
0.996435
21
-17.2274
0
LINE
8
Black
10
0.996435
20
-17.2274
11
0.999613
21
-17.2329
0
LINE
8
Black
10
0.999613
20
-17.2329
11
0.999613
21
-17.2329
0
LINE
8
Black
10
0.999613
20
-17.2329
11
1.13027
21
-17.5919
0
LINE
8
Black
10
1.13027
20
-17.5919
11
1.13329
21
-17.609
0
LINE
8
Black
10
1.13329
20
-17.609
11
1.13329
21
-17.991
0
LINE
8
Black
10
1.13329
20
-17.991
11
1.13027
21
-18.0081
0
LINE
8
Black
10
1.13027
20
-18.0081
11
0.999613
21
-18.3671
0
LINE
8
Black
10
0.999613
20
-18.3671
11
0.999613
21
-18.3671
0
LINE
8
Black
10
0.999613
20
-18.3671
11
0.996435
21
-18.3726
0
LINE
8
Black
10
0.996435
20
-18.3726
11
0.990931
21
-18.3821
0
LINE
8
Black
10
0.990931
20
-18.3821
11
0.990928
21
-18.3821
0
LINE
8
Black
10
0.990928
20
-18.3821
11
0.745373
21
-18.6748
0
LINE
8
Black
10
0.745373
20
-18.6748
11
0.745369
21
-18.6748
0
LINE
8
Black
10
0.745369
20
-18.6748
11
0.736751
21
-18.682
0
LINE
8
Black
10
0.736751
20
-18.682
11
0.732066
21
-18.686
0
LINE
8
Black
10
0.732066
20
-18.686
11
0.732061
21
-18.686
0
LINE
8
Black
10
0.732061
20
-18.686
11
0.401226
21
-18.877
0
LINE
8
Black
10
0.401226
20
-18.877
11
0.401222
21
-18.877
0
LINE
8
Black
10
0.401222
20
-18.877
11
0.393063
21
-18.8799
0
LINE
8
Black
10
0.393063
20
-18.8799
11
0.384905
21
-18.8829
0
LINE
8
Black
10
0.384905
20
-18.8829
11
0.384899
21
-18.8829
0
LINE
8
Black
10
0.384899
20
-18.8829
11
0.05
21
-18.942
0
LINE
8
Black
10
0.05
20
-18.942
11
0.05
21
-41.7978
0
LINE
8
Black
10
0.05
20
-41.7978
11
0.094813
21
-42.31
0
LINE
8
Black
10
0.094813
20
-42.31
11
0.445894
21
-43.2746
0
LINE
8
Black
10
0.445894
20
-43.2746
11
1.10427
21
-44.0592
0
LINE
8
Black
10
1.10427
20
-44.0592
11
1.9913
21
-44.5714
0
LINE
8
Black
10
1.9913
20
-44.5714
11
3.00437
21
-44.75
0
LINE
8
Black
10
3.00437
20
-44.75
11
23.9978
21
-44.75
0
LINE
8
Black
10
23.9978
20
-44.75
11
24.51
21
-44.7052
0
LINE
8
Black
10
24.51
20
-44.7052
11
25.4746
21
-44.3541
0
LINE
8
Black
10
25.4746
20
-44.3541
11
26.2592
21
-43.6957
0
LINE
8
Black
10
26.2592
20
-43.6957
11
26.7714
21
-42.8087
0
LINE
8
Black
10
26.7714
20
-42.8087
11
26.95
21
-41.7956
0
LINE
8
Black
10
26.95
20
-41.7956
11
26.95
21
-18.942
0
LINE
8
Black
10
26.95
20
-18.942
11
26.6151
21
-18.8829
0
LINE
8
Black
10
26.6151
20
-18.8829
11
26.6151
21
-18.8829
0
LINE
8
Black
10
26.6151
20
-18.8829
11
26.6069
21
-18.8799
0
LINE
8
Black
10
26.6069
20
-18.8799
11
26.5988
21
-18.877
0
LINE
8
Black
10
26.5988
20
-18.877
11
26.5988
21
-18.877
0
LINE
8
Black
10
26.5988
20
-18.877
11
26.2679
21
-18.6859
0
LINE
8
Black
10
26.2679
20
-18.6859
11
26.2546
21
-18.6748
0
LINE
8
Black
10
26.2546
20
-18.6748
11
26.2546
21
-18.6748
0
LINE
8
Black
10
26.2546
20
-18.6748
11
26.0091
21
-18.3821
0
LINE
8
Black
10
26.0091
20
-18.3821
11
26.0091
21
-18.3821
0
LINE
8
Black
10
26.0091
20
-18.3821
11
26.0004
21
-18.3671
0
LINE
8
Black
10
26.0004
20
-18.3671
11
25.8697
21
-18.0081
0
LINE
8
Black
10
25.8697
20
-18.0081
11
25.8667
21
-17.991
0
LINE
8
Black
10
25.8667
20
-17.991
11
25.8667
21
-17.609
0
LINE
8
Black
10
25.8667
20
-17.609
11
25.8697
21
-17.5919
0
LINE
8
Black
10
25.8697
20
-17.5919
11
26.0004
21
-17.2329
0
LINE
8
Black
10
26.0004
20
-17.2329
11
26.0091
21
-17.2179
0
LINE
8
Black
10
26.0091
20
-17.2179
11
26.0091
21
-17.2179
0
LINE
8
Black
10
26.0091
20
-17.2179
11
26.2546
21
-16.9252
0
LINE
8
Black
10
26.2546
20
-16.9252
11
26.2546
21
-16.9252
0
LINE
8
Black
10
26.2546
20
-16.9252
11
26.2679
21
-16.914
0
LINE
8
Black
10
26.2679
20
-16.914
11
26.5988
21
-16.723
0
LINE
8
Black
10
26.5988
20
-16.723
11
26.5988
21
-16.723
0
LINE
8
Black
10
26.5988
20
-16.723
11
26.6069
21
-16.7201
0
LINE
8
Black
10
26.6069
20
-16.7201
11
26.6151
21
-16.7171
0
LINE
8
Black
10
26.6151
20
-16.7171
11
26.95
21
-16.658
0
LINE
8
Black
10
26.95
20
-16.658
11
26.95
21
-6.62071
  0
ENDSEC
  0
EOF
