<?xml version="1.0" encoding="UTF-8" standalone="no"?>
<!-- Generator: Adobe Illustrator 15.0.0, SVG Export Plug-In . SVG Version: 6.00 Build 0)  -->

<svg
   xmlns:dc="http://purl.org/dc/elements/1.1/"
   xmlns:cc="http://creativecommons.org/ns#"
   xmlns:rdf="http://www.w3.org/1999/02/22-rdf-syntax-ns#"
   xmlns:svg="http://www.w3.org/2000/svg"
   xmlns="http://www.w3.org/2000/svg"
   xmlns:sodipodi="http://sodipodi.sourceforge.net/DTD/sodipodi-0.dtd"
   xmlns:inkscape="http://www.inkscape.org/namespaces/inkscape"
   version="1.1"
   id="svg2"
   sodipodi:docname="logo.svg"
   inkscape:version="0.91 r13725"
   x="0px"
   y="0px"
   width="70.867645"
   height="63.829491"
   viewBox="0 0 70.867643 63.829495"
   enable-background="new 0 0 371.049 319.942"
   xml:space="preserve"><metadata
     id="metadata55"><rdf:RDF><cc:Work
         rdf:about=""><dc:format>image/svg+xml</dc:format><dc:type
           rdf:resource="http://purl.org/dc/dcmitype/StillImage" /><dc:title></dc:title></cc:Work></rdf:RDF></metadata><defs
     id="defs53" /><sodipodi:namedview
     pagecolor="#ffffff"
     bordercolor="#666666"
     id="base"
     borderopacity="1.0"
     inkscape:pageopacity="0.0"
     inkscape:zoom="1.226764"
     inkscape:pageshadow="2"
     inkscape:cx="-8.7426023"
     inkscape:cy="-87.268454"
     inkscape:document-units="px"
     inkscape:current-layer="g3016"
     showgrid="false"
     inkscape:window-width="1920"
     inkscape:window-height="1056"
     inkscape:window-x="0"
     inkscape:window-y="66"
     inkscape:window-maximized="1"
     fit-margin-top="0"
     fit-margin-left="0"
     fit-margin-right="0"
     fit-margin-bottom="0" /><g
     id="layer1"
     transform="translate(-237.323,-375.08293)"
     inkscape:groupmode="layer"
     inkscape:label="Layer 1"><g
       inkscape:label="openHardware"
       transform="matrix(0.96255279,0,0,-0.96255279,-134.03148,636.75378)"
       id="g3012"
       style="fill:none;stroke:#000000;stroke-width:1.0285151;stroke-miterlimit:4;stroke-dasharray:none;stroke-opacity:1"><g
         style="fill:none;stroke:#000000;stroke-width:1.0285151;stroke-miterlimit:4;stroke-dasharray:none;stroke-opacity:1"
         id="g8"
         transform="matrix(1.5224901,0,0,1.5224901,-262.10093,-201.76474)"><g
           style="fill:none;stroke:#000000;stroke-width:1.0285151;stroke-miterlimit:4;stroke-dasharray:none;stroke-opacity:1"
           id="g3016"><g
             style="fill:none;stroke:#000000;stroke-width:3.92652917;stroke-miterlimit:4;stroke-dasharray:none;stroke-opacity:1"
             id="g3022"
             transform="matrix(0.26220211,0,0,0.26167816,472.41114,348.32044)"><path
               id="path3024"
               inkscape:connector-curvature="0"
               d="m 2.7811856,-221.93861 -2.12000004,0.395 c -0.541,0.099 -1.426,0.264 -1.96699996,0.365 l -18.0749996,3.362 c -0.541,0.101 -1.131,0.608 -1.311,1.128 l -6.795,15.849 c -0.253,0.489 -0.204,1.259 0.107,1.714 l 10.563,15.392 c 0.311,0.454 0.821,1.196 1.131,1.65 l 1.221,1.778 c 0.309,0.453 0.246,1.142 -0.143,1.531 l -1.524,1.524 -1.414,1.414 -4.419,4.419 -1.414,1.414 -4.417,4.419 -1.415,1.415 -1.525,1.524 c -0.388,0.389 -1.078,0.453 -1.531,0.142 l -1.778,-1.22 c -0.454,-0.312 -1.196,-0.82 -1.649,-1.132 l -15.722,-10.79 c -0.453,-0.312 -1.228,-0.367 -1.722,-0.125 l -15.365,6.289 c -0.522,0.173 -1.03,0.757 -1.132,1.297 l -3.505,18.838 c -0.1,0.541 -0.266,1.426 -0.365,1.966 l -0.396,2.12 c -0.1,0.54 -0.633,0.982 -1.182,0.982 l -2.156,0 -2,0 -6.25,0 -2,0 -6.25,0 -2,0 -2.155,0 c -0.55,0 -1.082,-0.442 -1.182,-0.983 l -0.395,-2.119 c -0.101,-0.54 -0.265,-1.425 -0.365,-1.966 l -3.505996,-18.838 c -0.101,-0.54 -0.609,-1.124 -1.132,-1.297 l -15.365,-6.289 c -0.494,-0.242 -1.269,-0.187 -1.722,0.125 l -15.722,10.79 c -0.454,0.312 -1.196,0.82 -1.649,1.132 l -1.778,1.22 c -0.453,0.311 -1.143,0.247 -1.531,-0.142 l -1.525,-1.524 -1.414,-1.415 -4.419,-4.42 -1.414,-1.414 -4.418,-4.418 -1.414,-1.414 -1.524,-1.524 c -0.389,-0.389 -0.453,-1.078 -0.142,-1.531 l 1.22,-1.778 c 0.31,-0.454 0.82,-1.196 1.131,-1.65 l 10.563,-15.392 c 0.311,-0.455 0.359,-1.225 0.107,-1.714 l -6.794,-15.849 c -0.181,-0.52 -0.771,-1.027 -1.312,-1.128 l -18.075,-3.362 c -0.541,-0.101 -1.426,-0.266 -1.967,-0.365 l -2.12,-0.395 c -0.541,-0.102 -0.983,-0.633 -0.983,-1.184 l 0.001,-2.156 0,-2 0,-6.25 0,-2 0,-6.248 0,-2 0,-2.155 c 0,-0.55 0.443,-1.083 0.984,-1.183 l 2.119,-0.394 c 0.541,-0.101 1.426,-0.266 1.967,-0.367 l 17.531,-3.262 c 0.541,-0.1 1.119,-0.612 1.284,-1.137 l 6.748,-16.859 c 0.242,-0.493 0.185,-1.27 -0.127,-1.723 l -9.927,-14.466 c -0.312,-0.454 -0.822,-1.196 -1.132,-1.648 l -1.221,-1.78 c -0.31,-0.453 -0.247,-1.142 0.142,-1.531 l 1.525,-1.524 1.414,-1.414 4.421,-4.421 1.414,-1.414 4.417,-4.416 1.414,-1.415 1.526,-1.524 c 0.388,-0.388 1.078,-0.452 1.531,-0.141 l 1.777,1.219 c 0.453,0.311 1.195,0.821 1.649,1.131 l 14.152,9.712 c 0.453,0.311 1.212,0.336 1.685,0.058 l 2.938,-1.654 c 0.484,-0.26 1.281,-0.677 1.771,-0.927 l 3.043,-1.558 c 0.491,-0.25 1.063,-0.039 1.274,0.469 l 1.306,3.158 c 0.211,0.508 0.555,1.34 0.766,1.848 l 12.276996,29.669 c 0.211,0.506 0.555,1.339 0.766,1.846 l 0.869,2.102 c 0.211,0.508 -0.001,1.158 -0.47,1.445 l -1.94,1.187 c -0.358,0.218 -0.845,0.595 -1.225996,0.939 -6.999,4.483 -11.641,12.323 -11.641,21.25 0,13.932 11.294,25.226 25.224996,25.226 13.932,0 25.226,-11.294 25.226,-25.226 0,-8.928 -4.643,-16.767 -11.642,-21.25 -0.38,-0.344 -0.867,-0.72 -1.226,-0.939 l -1.939,-1.187 c -0.468,-0.287 -0.68,-0.937 -0.47,-1.445 l 0.87,-2.102 c 0.21,-0.508 0.554,-1.34 0.764,-1.846 l 12.277,-29.669 c 0.211,-0.508 0.555,-1.34 0.765,-1.848 l 1.308,-3.158 c 0.211,-0.508 0.783,-0.719 1.274,-0.469 l 3.042,1.558 c 0.492,0.25 1.288,0.667 1.772,0.927 l 2.937,1.654 c 0.474,0.278 1.233,0.253 1.686,-0.058 l 14.152,-9.712 c 0.453,-0.31 1.197,-0.82 1.648,-1.131 l 1.779,-1.219 c 0.453,-0.311 1.143,-0.247 1.531,0.141 l 1.524,1.524 1.415,1.415 4.417,4.418 1.414,1.414 4.421,4.419 1.414,1.414 1.526,1.524 c 0.388,0.388 0.452,1.078 0.141,1.531 l -1.221,1.78 c -0.311,0.452 -0.821,1.194 -1.132,1.648 l -9.928,14.466 c -0.311,0.453 -0.369,1.229 -0.127,1.723 l 6.748,16.859 c 0.166,0.525 0.744,1.037 1.284,1.137 l 17.5319996,3.262 c 0.54099996,0.101 1.42599996,0.266 1.96699996,0.367 l 2.11800004,0.394 c 0.541,0.1 0.983,0.633 0.983,1.183 l 0,2.155 0,2 0,6.248 0,2 10e-4,6.25 0,2 10e-4,2.156 c 10e-4,0.551 -0.441,1.082 -0.982,1.184"
               style="fill:none;stroke:#000000;stroke-width:3.92652917;stroke-miterlimit:4;stroke-dasharray:none;stroke-opacity:1" /></g></g></g></g></g></svg>