  0
SECTION
  2
HEADER
  9
$ANGBASE
  50
0.0
  9
$ANGDIR
  70
  1
  9
$MEASUREMENT
  70
0
  0
ENDSEC
  0
SECTION
  2
TABLES
  0
TABLE
  2
LTYPE
  70
1
  0
LTYPE
  2
CONTINUOUS
  70
0
  3
Solid line
  72
65
  73
0
  40
0.0
  0
ENDTAB
  0
TABLE
  2
STYLE
  70
4
  0
STYLE
  2
KICAD
  70
0
  40
0
  41
1
  42
1
  50
0
  71
0
  3
isocp.shx
  0
STYLE
  2
KICADB
  70
0
  40
0
  41
1
  42
1
  50
0
  71
0
  3
isocp.shx
  0
STYLE
  2
KICADI
  70
0
  40
0
  41
1
  42
1
  50
15
  71
0
  3
isocp.shx
  0
STYLE
  2
KICADBI
  70
0
  40
0
  41
1
  42
1
  50
15
  71
0
  3
isocp.shx
  0
ENDTAB
  0
TABLE
  2
LAYER
  70
30
  0
LAYER
  2
BLACK
  70
0
  62
7
  6
CONTINUOUS
  0
LAYER
  2
GRAY1
  70
0
  62
251
  6
CONTINUOUS
  0
LAYER
  2
GRAY2
  70
0
  62
8
  6
CONTINUOUS
  0
LAYER
  2
GRAY3
  70
0
  62
9
  6
CONTINUOUS
  0
LAYER
  2
WHITE
  70
0
  62
7
  6
CONTINUOUS
  0
LAYER
  2
LYELLOW
  70
0
  62
51
  6
CONTINUOUS
  0
LAYER
  2
BLUE1
  70
0
  62
178
  6
CONTINUOUS
  0
LAYER
  2
GREEN1
  70
0
  62
98
  6
CONTINUOUS
  0
LAYER
  2
CYAN1
  70
0
  62
138
  6
CONTINUOUS
  0
LAYER
  2
RED1
  70
0
  62
18
  6
CONTINUOUS
  0
LAYER
  2
MAGENTA1
  70
0
  62
228
  6
CONTINUOUS
  0
LAYER
  2
BROWN1
  70
0
  62
58
  6
CONTINUOUS
  0
LAYER
  2
BLUE2
  70
0
  62
5
  6
CONTINUOUS
  0
LAYER
  2
GREEN2
  70
0
  62
3
  6
CONTINUOUS
  0
LAYER
  2
CYAN2
  70
0
  62
4
  6
CONTINUOUS
  0
LAYER
  2
RED2
  70
0
  62
1
  6
CONTINUOUS
  0
LAYER
  2
MAGENTA2
  70
0
  62
6
  6
CONTINUOUS
  0
LAYER
  2
BROWN2
  70
0
  62
54
  6
CONTINUOUS
  0
LAYER
  2
BLUE3
  70
0
  62
171
  6
CONTINUOUS
  0
LAYER
  2
GREEN3
  70
0
  62
91
  6
CONTINUOUS
  0
LAYER
  2
CYAN3
  70
0
  62
131
  6
CONTINUOUS
  0
LAYER
  2
RED3
  70
0
  62
11
  6
CONTINUOUS
  0
LAYER
  2
MAGENTA3
  70
0
  62
221
  6
CONTINUOUS
  0
LAYER
  2
YELLOW3
  70
0
  62
2
  6
CONTINUOUS
  0
LAYER
  2
BLUE4
  70
0
  62
5
  6
CONTINUOUS
  0
LAYER
  2
GREEN4
  70
0
  62
3
  6
CONTINUOUS
  0
LAYER
  2
CYAN4
  70
0
  62
4
  6
CONTINUOUS
  0
LAYER
  2
RED4
  70
0
  62
1
  6
CONTINUOUS
  0
LAYER
  2
MAGENTA4
  70
0
  62
6
  6
CONTINUOUS
  0
LAYER
  2
YELLOW4
  70
0
  62
2
  6
CONTINUOUS
  0
ENDTAB
  0
ENDSEC
  0
SECTION
  2
ENTITIES
0
LINE
8
Black
10
20.4522
20
-0.000382
11
20.4544
21
-0.000191
0
LINE
8
Black
10
20.4544
20
-0.000191
11
20.4607
21
-0.00188
0
LINE
8
Black
10
20.4607
20
-0.00188
11
20.4671
21
-0.003015
0
LINE
8
Black
10
20.4671
20
-0.003015
11
20.469
21
-0.004115
0
LINE
8
Black
10
20.469
20
-0.004115
11
20.4711
21
-0.004684
0
LINE
8
Black
10
20.4711
20
-0.004684
11
20.4765
21
-0.008433
0
LINE
8
Black
10
20.4765
20
-0.008433
11
20.4821
21
-0.011698
0
LINE
8
Black
10
20.4821
20
-0.011698
11
20.4836
21
-0.013383
0
LINE
8
Black
10
20.4836
20
-0.013383
11
20.4854
21
-0.014645
0
LINE
8
Black
10
20.4854
20
-0.014645
11
27.0854
21
-6.61464
0
LINE
8
Black
10
27.0854
20
-6.61464
11
27.0866
21
-6.61645
0
LINE
8
Black
10
27.0866
20
-6.61645
11
27.0883
21
-6.61786
0
LINE
8
Black
10
27.0883
20
-6.61786
11
27.0916
21
-6.62351
0
LINE
8
Black
10
27.0916
20
-6.62351
11
27.0953
21
-6.62887
0
LINE
8
Black
10
27.0953
20
-6.62887
11
27.0959
21
-6.63099
0
LINE
8
Black
10
27.0959
20
-6.63099
11
27.097
21
-6.6329
0
LINE
8
Black
10
27.097
20
-6.6329
11
27.0981
21
-6.63933
0
LINE
8
Black
10
27.0981
20
-6.63933
11
27.0998
21
-6.64564
0
LINE
8
Black
10
27.0998
20
-6.64564
11
27.0996
21
-6.64783
0
LINE
8
Black
10
27.0996
20
-6.64783
11
27.1
21
-6.65
0
LINE
8
Black
10
27.1
20
-6.65
11
27.1
21
-16.75
0
LINE
8
Black
10
27.1
20
-16.75
11
27.097
21
-16.7671
0
LINE
8
Black
10
27.097
20
-16.7671
11
27.0883
21
-16.7821
0
LINE
8
Black
10
27.0883
20
-16.7821
11
27.075
21
-16.7933
0
LINE
8
Black
10
27.075
20
-16.7933
11
27.0587
21
-16.7992
0
LINE
8
Black
10
27.0587
20
-16.7992
11
26.6911
21
-16.864
0
LINE
8
Black
10
26.6911
20
-16.864
11
26.3756
21
-17.0462
0
LINE
8
Black
10
26.3756
20
-17.0462
11
26.1413
21
-17.3254
0
LINE
8
Black
10
26.1413
20
-17.3254
11
26.0167
21
-17.6678
0
LINE
8
Black
10
26.0167
20
-17.6678
11
26.0167
21
-18.0322
0
LINE
8
Black
10
26.0167
20
-18.0322
11
26.1413
21
-18.3746
0
LINE
8
Black
10
26.1413
20
-18.3746
11
26.3756
21
-18.6538
0
LINE
8
Black
10
26.3756
20
-18.6538
11
26.6911
21
-18.836
0
LINE
8
Black
10
26.6911
20
-18.836
11
27.0587
21
-18.9008
0
LINE
8
Black
10
27.0587
20
-18.9008
11
27.075
21
-18.9067
0
LINE
8
Black
10
27.075
20
-18.9067
11
27.0858
21
-18.9158
0
LINE
8
Black
10
27.0858
20
-18.9158
11
27.0883
21
-18.9179
0
LINE
8
Black
10
27.0883
20
-18.9179
11
27.097
21
-18.9329
0
LINE
8
Black
10
27.097
20
-18.9329
11
27.1
21
-18.95
0
LINE
8
Black
10
27.1
20
-18.95
11
27.1
21
-41.85
0
LINE
8
Black
10
27.1
20
-41.85
11
27.0992
21
-41.8543
0
LINE
8
Black
10
27.0992
20
-41.8543
11
27.0992
21
-41.8587
0
LINE
8
Black
10
27.0992
20
-41.8587
11
26.9183
21
-42.8847
0
LINE
8
Black
10
26.9183
20
-42.8847
11
26.9183
21
-42.8847
0
LINE
8
Black
10
26.9183
20
-42.8847
11
26.9153
21
-42.8929
0
LINE
8
Black
10
26.9153
20
-42.8929
11
26.9124
21
-42.9011
0
LINE
8
Black
10
26.9124
20
-42.9011
11
26.9124
21
-42.9011
0
LINE
8
Black
10
26.9124
20
-42.9011
11
26.3914
21
-43.8034
0
LINE
8
Black
10
26.3914
20
-43.8034
11
26.3914
21
-43.8034
0
LINE
8
Black
10
26.3914
20
-43.8034
11
26.3803
21
-43.8167
0
LINE
8
Black
10
26.3803
20
-43.8167
11
25.5821
21
-44.4864
0
LINE
8
Black
10
25.5821
20
-44.4864
11
25.5821
21
-44.4864
0
LINE
8
Black
10
25.5821
20
-44.4864
11
25.5766
21
-44.4896
0
LINE
8
Black
10
25.5766
20
-44.4896
11
25.5671
21
-44.4951
0
LINE
8
Black
10
25.5671
20
-44.4951
11
25.5671
21
-44.4951
0
LINE
8
Black
10
25.5671
20
-44.4951
11
24.588
21
-44.8514
0
LINE
8
Black
10
24.588
20
-44.8514
11
24.5816
21
-44.8525
0
LINE
8
Black
10
24.5816
20
-44.8525
11
24.5753
21
-44.8542
0
LINE
8
Black
10
24.5753
20
-44.8542
11
24.0544
21
-44.8998
0
LINE
8
Black
10
24.0544
20
-44.8998
11
24.0522
21
-44.8996
0
LINE
8
Black
10
24.0522
20
-44.8996
11
24.05
21
-44.9
0
LINE
8
Black
10
24.05
20
-44.9
11
3.05
21
-44.9
0
LINE
8
Black
10
3.05
20
-44.9
11
3.04569
21
-44.8992
0
LINE
8
Black
10
3.04569
20
-44.8992
11
3.04132
21
-44.8992
0
LINE
8
Black
10
3.04132
20
-44.8992
11
2.01526
21
-44.7183
0
LINE
8
Black
10
2.01526
20
-44.7183
11
2.01526
21
-44.7183
0
LINE
8
Black
10
2.01526
20
-44.7183
11
2.0071
21
-44.7153
0
LINE
8
Black
10
2.0071
20
-44.7153
11
1.99894
21
-44.7124
0
LINE
8
Black
10
1.99894
20
-44.7124
11
1.99894
21
-44.7124
0
LINE
8
Black
10
1.99894
20
-44.7124
11
1.09664
21
-44.1914
0
LINE
8
Black
10
1.09664
20
-44.1914
11
1.09664
21
-44.1914
0
LINE
8
Black
10
1.09664
20
-44.1914
11
1.08333
21
-44.1803
0
LINE
8
Black
10
1.08333
20
-44.1803
11
0.413625
21
-43.3821
0
LINE
8
Black
10
0.413625
20
-43.3821
11
0.413622
21
-43.3821
0
LINE
8
Black
10
0.413622
20
-43.3821
11
0.410444
21
-43.3766
0
LINE
8
Black
10
0.410444
20
-43.3766
11
0.404939
21
-43.3671
0
LINE
8
Black
10
0.404939
20
-43.3671
11
0.404938
21
-43.3671
0
LINE
8
Black
10
0.404938
20
-43.3671
11
0.048592
21
-42.388
0
LINE
8
Black
10
0.048592
20
-42.388
11
0.047458
21
-42.3816
0
LINE
8
Black
10
0.047458
20
-42.3816
11
0.045767
21
-42.3753
0
LINE
8
Black
10
0.045767
20
-42.3753
11
0.00019
21
-41.8544
0
LINE
8
Black
10
0.00019
20
-41.8544
11
0.000382
21
-41.8522
0
LINE
8
Black
10
0.000382
20
-41.8522
11
0
21
-41.85
0
LINE
8
Black
10
0
20
-41.85
11
0
21
-18.95
0
LINE
8
Black
10
0
20
-18.95
11
0.003015
21
-18.9329
0
LINE
8
Black
10
0.003015
20
-18.9329
11
0.011698
21
-18.9179
0
LINE
8
Black
10
0.011698
20
-18.9179
11
0.014153
21
-18.9158
0
LINE
8
Black
10
0.014153
20
-18.9158
11
0.025
21
-18.9067
0
LINE
8
Black
10
0.025
20
-18.9067
11
0.041318
21
-18.9008
0
LINE
8
Black
10
0.041318
20
-18.9008
11
0.408857
21
-18.836
0
LINE
8
Black
10
0.408857
20
-18.836
11
0.724431
21
-18.6538
0
LINE
8
Black
10
0.724431
20
-18.6538
11
0.958658
21
-18.3746
0
LINE
8
Black
10
0.958658
20
-18.3746
11
1.08329
21
-18.0322
0
LINE
8
Black
10
1.08329
20
-18.0322
11
1.08329
21
-17.6678
0
LINE
8
Black
10
1.08329
20
-17.6678
11
0.958658
21
-17.3254
0
LINE
8
Black
10
0.958658
20
-17.3254
11
0.724431
21
-17.0462
0
LINE
8
Black
10
0.724431
20
-17.0462
11
0.408857
21
-16.864
0
LINE
8
Black
10
0.408857
20
-16.864
11
0.041318
21
-16.7992
0
LINE
8
Black
10
0.041318
20
-16.7992
11
0.025
21
-16.7933
0
LINE
8
Black
10
0.025
20
-16.7933
11
0.011698
21
-16.7821
0
LINE
8
Black
10
0.011698
20
-16.7821
11
0.003015
21
-16.7671
0
LINE
8
Black
10
0.003015
20
-16.7671
11
0
21
-16.75
0
LINE
8
Black
10
0
20
-16.75
11
0
21
-6.65
0
LINE
8
Black
10
0
20
-6.65
11
0.000382
21
-6.64783
0
LINE
8
Black
10
0.000382
20
-6.64783
11
0.000191
21
-6.64564
0
LINE
8
Black
10
0.000191
20
-6.64564
11
0.00188
21
-6.63934
0
LINE
8
Black
10
0.00188
20
-6.63934
11
0.003015
21
-6.6329
0
LINE
8
Black
10
0.003015
20
-6.6329
11
0.004115
21
-6.63099
0
LINE
8
Black
10
0.004115
20
-6.63099
11
0.004684
21
-6.62887
0
LINE
8
Black
10
0.004684
20
-6.62887
11
0.008433
21
-6.62351
0
LINE
8
Black
10
0.008433
20
-6.62351
11
0.011698
21
-6.61786
0
LINE
8
Black
10
0.011698
20
-6.61786
11
0.013383
21
-6.61645
0
LINE
8
Black
10
0.013383
20
-6.61645
11
0.014645
21
-6.61464
0
LINE
8
Black
10
0.014645
20
-6.61464
11
6.61464
21
-0.014644
0
LINE
8
Black
10
6.61464
20
-0.014644
11
6.61645
21
-0.013381
0
LINE
8
Black
10
6.61645
20
-0.013381
11
6.61786
21
-0.011698
0
LINE
8
Black
10
6.61786
20
-0.011698
11
6.62351
21
-0.008435
0
LINE
8
Black
10
6.62351
20
-0.008435
11
6.62887
21
-0.004684
0
LINE
8
Black
10
6.62887
20
-0.004684
11
6.63099
21
-0.004114
0
LINE
8
Black
10
6.63099
20
-0.004114
11
6.6329
21
-0.003015
0
LINE
8
Black
10
6.6329
20
-0.003015
11
6.63933
21
-0.001881
0
LINE
8
Black
10
6.63933
20
-0.001881
11
6.64564
21
-0.00019
0
LINE
8
Black
10
6.64564
20
-0.00019
11
6.64783
21
-0.000382
0
LINE
8
Black
10
6.64783
20
-0.000382
11
6.65
21
0
0
LINE
8
Black
10
6.65
20
0
11
20.45
21
0
0
LINE
8
Black
10
20.45
20
0
11
20.4522
21
-0.000382
0
LINE
8
Black
10
27
20
-6.67071
11
20.4293
21
-0.1
0
LINE
8
Black
10
20.4293
20
-0.1
11
6.67071
21
-0.1
0
LINE
8
Black
10
6.67071
20
-0.1
11
0.1
21
-6.67071
0
LINE
8
Black
10
0.1
20
-6.67071
11
0.1
21
-16.708
0
LINE
8
Black
10
0.1
20
-16.708
11
0.434899
21
-16.7671
0
LINE
8
Black
10
0.434899
20
-16.7671
11
0.434905
21
-16.7671
0
LINE
8
Black
10
0.434905
20
-16.7671
11
0.443063
21
-16.7701
0
LINE
8
Black
10
0.443063
20
-16.7701
11
0.451222
21
-16.773
0
LINE
8
Black
10
0.451222
20
-16.773
11
0.451226
21
-16.773
0
LINE
8
Black
10
0.451226
20
-16.773
11
0.782061
21
-16.964
0
LINE
8
Black
10
0.782061
20
-16.964
11
0.782066
21
-16.964
0
LINE
8
Black
10
0.782066
20
-16.964
11
0.786751
21
-16.968
0
LINE
8
Black
10
0.786751
20
-16.968
11
0.795369
21
-16.9752
0
LINE
8
Black
10
0.795369
20
-16.9752
11
0.795373
21
-16.9752
0
LINE
8
Black
10
0.795373
20
-16.9752
11
1.04093
21
-17.2679
0
LINE
8
Black
10
1.04093
20
-17.2679
11
1.04093
21
-17.2679
0
LINE
8
Black
10
1.04093
20
-17.2679
11
1.04644
21
-17.2774
0
LINE
8
Black
10
1.04644
20
-17.2774
11
1.04961
21
-17.2829
0
LINE
8
Black
10
1.04961
20
-17.2829
11
1.04961
21
-17.2829
0
LINE
8
Black
10
1.04961
20
-17.2829
11
1.18027
21
-17.6419
0
LINE
8
Black
10
1.18027
20
-17.6419
11
1.18329
21
-17.659
0
LINE
8
Black
10
1.18329
20
-17.659
11
1.18329
21
-18.041
0
LINE
8
Black
10
1.18329
20
-18.041
11
1.18027
21
-18.0581
0
LINE
8
Black
10
1.18027
20
-18.0581
11
1.04961
21
-18.4171
0
LINE
8
Black
10
1.04961
20
-18.4171
11
1.04961
21
-18.4171
0
LINE
8
Black
10
1.04961
20
-18.4171
11
1.04644
21
-18.4226
0
LINE
8
Black
10
1.04644
20
-18.4226
11
1.04093
21
-18.4321
0
LINE
8
Black
10
1.04093
20
-18.4321
11
1.04093
21
-18.4321
0
LINE
8
Black
10
1.04093
20
-18.4321
11
0.795373
21
-18.7248
0
LINE
8
Black
10
0.795373
20
-18.7248
11
0.795369
21
-18.7248
0
LINE
8
Black
10
0.795369
20
-18.7248
11
0.786751
21
-18.732
0
LINE
8
Black
10
0.786751
20
-18.732
11
0.782066
21
-18.736
0
LINE
8
Black
10
0.782066
20
-18.736
11
0.782061
21
-18.736
0
LINE
8
Black
10
0.782061
20
-18.736
11
0.451226
21
-18.927
0
LINE
8
Black
10
0.451226
20
-18.927
11
0.451222
21
-18.927
0
LINE
8
Black
10
0.451222
20
-18.927
11
0.443063
21
-18.9299
0
LINE
8
Black
10
0.443063
20
-18.9299
11
0.434905
21
-18.9329
0
LINE
8
Black
10
0.434905
20
-18.9329
11
0.434899
21
-18.9329
0
LINE
8
Black
10
0.434899
20
-18.9329
11
0.1
21
-18.992
0
LINE
8
Black
10
0.1
20
-18.992
11
0.1
21
-41.8478
0
LINE
8
Black
10
0.1
20
-41.8478
11
0.144813
21
-42.36
0
LINE
8
Black
10
0.144813
20
-42.36
11
0.495894
21
-43.3246
0
LINE
8
Black
10
0.495894
20
-43.3246
11
1.15427
21
-44.1092
0
LINE
8
Black
10
1.15427
20
-44.1092
11
2.0413
21
-44.6214
0
LINE
8
Black
10
2.0413
20
-44.6214
11
3.05437
21
-44.8
0
LINE
8
Black
10
3.05437
20
-44.8
11
24.0478
21
-44.8
0
LINE
8
Black
10
24.0478
20
-44.8
11
24.56
21
-44.7552
0
LINE
8
Black
10
24.56
20
-44.7552
11
25.5246
21
-44.4041
0
LINE
8
Black
10
25.5246
20
-44.4041
11
26.3092
21
-43.7457
0
LINE
8
Black
10
26.3092
20
-43.7457
11
26.8214
21
-42.8587
0
LINE
8
Black
10
26.8214
20
-42.8587
11
27
21
-41.8456
0
LINE
8
Black
10
27
20
-41.8456
11
27
21
-18.992
0
LINE
8
Black
10
27
20
-18.992
11
26.6651
21
-18.9329
0
LINE
8
Black
10
26.6651
20
-18.9329
11
26.6651
21
-18.9329
0
LINE
8
Black
10
26.6651
20
-18.9329
11
26.6569
21
-18.9299
0
LINE
8
Black
10
26.6569
20
-18.9299
11
26.6488
21
-18.927
0
LINE
8
Black
10
26.6488
20
-18.927
11
26.6488
21
-18.927
0
LINE
8
Black
10
26.6488
20
-18.927
11
26.3179
21
-18.7359
0
LINE
8
Black
10
26.3179
20
-18.7359
11
26.3046
21
-18.7248
0
LINE
8
Black
10
26.3046
20
-18.7248
11
26.3046
21
-18.7248
0
LINE
8
Black
10
26.3046
20
-18.7248
11
26.0591
21
-18.4321
0
LINE
8
Black
10
26.0591
20
-18.4321
11
26.0591
21
-18.4321
0
LINE
8
Black
10
26.0591
20
-18.4321
11
26.0504
21
-18.4171
0
LINE
8
Black
10
26.0504
20
-18.4171
11
25.9197
21
-18.0581
0
LINE
8
Black
10
25.9197
20
-18.0581
11
25.9167
21
-18.041
0
LINE
8
Black
10
25.9167
20
-18.041
11
25.9167
21
-17.659
0
LINE
8
Black
10
25.9167
20
-17.659
11
25.9197
21
-17.6419
0
LINE
8
Black
10
25.9197
20
-17.6419
11
26.0504
21
-17.2829
0
LINE
8
Black
10
26.0504
20
-17.2829
11
26.0591
21
-17.2679
0
LINE
8
Black
10
26.0591
20
-17.2679
11
26.0591
21
-17.2679
0
LINE
8
Black
10
26.0591
20
-17.2679
11
26.3046
21
-16.9752
0
LINE
8
Black
10
26.3046
20
-16.9752
11
26.3046
21
-16.9752
0
LINE
8
Black
10
26.3046
20
-16.9752
11
26.3179
21
-16.9641
0
LINE
8
Black
10
26.3179
20
-16.9641
11
26.6488
21
-16.773
0
LINE
8
Black
10
26.6488
20
-16.773
11
26.6488
21
-16.773
0
LINE
8
Black
10
26.6488
20
-16.773
11
26.6569
21
-16.7701
0
LINE
8
Black
10
26.6569
20
-16.7701
11
26.6651
21
-16.7671
0
LINE
8
Black
10
26.6651
20
-16.7671
11
27
21
-16.708
0
LINE
8
Black
10
27
20
-16.708
11
27
21
-6.67071
  0
ENDSEC
  0
EOF
